<svg width="16" height="14" viewBox="0 0 16 14" fill="none" xmlns="http://www.w3.org/2000/svg">
<path d="M7.76539 4.86848V7.53515M7.76539 10.2018H7.77206M6.62539 1.44182L0.978728 10.8685C0.862307 11.0701 0.800706 11.2987 0.800054 11.5315C0.799402 11.7643 0.859722 11.9932 0.975012 12.1955C1.0903 12.3978 1.25655 12.5663 1.4572 12.6844C1.65785 12.8025 1.88593 12.8659 2.11873 12.8685H13.4121C13.6449 12.8659 13.8729 12.8025 14.0736 12.6844C14.2742 12.5663 14.4405 12.3978 14.5558 12.1955C14.6711 11.9932 14.7314 11.7643 14.7307 11.5315C14.7301 11.2987 14.6685 11.0701 14.5521 10.8685L8.90539 1.44182C8.78655 1.24589 8.61921 1.0839 8.41953 0.971473C8.21984 0.859049 7.99455 0.799988 7.76539 0.799988C7.53624 0.799988 7.31095 0.859049 7.11126 0.971473C6.91158 1.0839 6.74424 1.24589 6.62539 1.44182Z" stroke="#AA642B" stroke-width="1.6" stroke-linecap="round" stroke-linejoin="round"/>
</svg>
