<svg width="16" height="16" viewBox="0 0 16 16" fill="none" xmlns="http://www.w3.org/2000/svg">
<g clip-path="url(#clip0_5323_182)">
<path d="M5.33334 10.6666L8 7.99995L10.6667 10.6666M8 7.99995V13.9999M13.5933 12.2599C14.2436 11.9055 14.7572 11.3445 15.0533 10.6657C15.3493 9.98686 15.4108 9.22877 15.2281 8.51107C15.0455 7.79338 14.629 7.15696 14.0444 6.70225C13.4599 6.24754 12.7406 6.00044 12 5.99995H11.16C10.9582 5.21944 10.5821 4.49484 10.06 3.88061C9.53783 3.26638 8.88323 2.77852 8.1454 2.45369C7.40757 2.12886 6.6057 1.97552 5.80008 2.0052C4.99446 2.03489 4.20605 2.24682 3.49412 2.62506C2.78219 3.0033 2.16528 3.53802 1.68975 4.189C1.21423 4.83999 0.892464 5.59031 0.748657 6.38354C0.604851 7.17678 0.642741 7.9923 0.85948 8.76879C1.07622 9.54527 1.46617 10.2625 2 10.8666" stroke="#BA681F" stroke-width="1.6" stroke-linecap="round" stroke-linejoin="round"/>
</g>
<defs>
<clipPath id="clip0_5323_182">
<rect width="16" height="16" fill="white"/>
</clipPath>
</defs>
</svg>
